<svg width="32" height="28" viewBox="0 0 32 28" fill="none" xmlns="http://www.w3.org/2000/svg">
<path d="M26.7171 6.80971C23.4326 5.00708 20.108 3.16476 16.8231 1.36213C16.4902 1.18457 16.1188 1.0917 15.7416 1.0917C15.3643 1.0917 14.9929 1.18457 14.66 1.36213C11.3755 3.16476 8.09099 5.00708 4.80607 6.80971C4.49128 6.9776 4.22586 7.22488 4.03618 7.52703C3.84649 7.82918 3.73916 8.17569 3.72477 8.53215V19.5075C3.73002 19.8764 3.83766 20.2365 4.03568 20.5477C4.2337 20.859 4.51429 21.1091 4.84617 21.2701C5.76753 21.7508 6.64883 22.2716 7.5702 22.752L12.9376 25.7161L14.5798 26.6375C14.6919 26.708 14.8132 26.7625 14.9403 26.7995L15.1023 26.8805H15.1428C15.6915 27.0307 16.2763 26.973 16.785 26.7185C20.0695 24.9158 23.3541 23.0735 26.639 21.2709C26.969 21.1074 27.2479 20.8568 27.4456 20.5461C27.6433 20.2354 27.7521 19.8765 27.7604 19.5083V8.53297C27.7487 8.18042 27.6466 7.83679 27.4639 7.53504C27.2812 7.23329 27.0241 6.98353 26.7171 6.80971ZM12.4974 19.107L9.93372 21.4701C9.91782 21.4856 9.89865 21.4973 9.87761 21.5043C9.85657 21.5113 9.83425 21.5135 9.81225 21.5106H9.77171C9.75949 21.5073 9.74829 21.501 9.73909 21.4923C9.72988 21.4836 9.72297 21.4728 9.71896 21.4607C9.71496 21.4487 9.71396 21.4359 9.7161 21.4234C9.71824 21.4109 9.72344 21.3991 9.73123 21.3891L10.6526 18.0244C10.6955 17.841 10.7841 17.6713 10.9101 17.5313C11.0362 17.3912 11.1956 17.2853 11.3735 17.2234L11.414 17.1829C11.461 17.1698 11.5103 17.1666 11.5586 17.1736C11.6069 17.1806 11.6532 17.1975 11.6947 17.2234C11.8566 17.3449 11.9749 17.4238 12.1353 17.5437C12.2864 17.6519 12.4474 17.7458 12.616 17.824C12.663 17.8446 12.7031 17.8781 12.7318 17.9206C12.7605 17.9631 12.7765 18.0129 12.778 18.0641L12.859 18.1451C12.8788 18.3226 12.8563 18.5022 12.7934 18.6693C12.7304 18.8364 12.6289 18.9863 12.4969 19.1066L12.4974 19.107ZM15.1412 16.7835C15.1007 16.7835 15.1006 16.824 15.0601 16.824L14.2591 16.743C14.2155 16.7377 14.1712 16.7423 14.1296 16.7563C14.088 16.7703 14.05 16.7935 14.0185 16.824L13.1372 17.6251C13.1214 17.6406 13.1022 17.6523 13.0811 17.6593C13.0601 17.6663 13.0377 17.6685 13.0157 17.6656C12.5883 17.4733 12.185 17.2313 11.8141 16.9447C11.7736 16.9042 11.7331 16.8637 11.7736 16.8232L12.0539 15.6617C12.0668 15.6213 12.0699 15.5785 12.0628 15.5367C12.0558 15.4949 12.0388 15.4554 12.0134 15.4215L11.5727 14.7407C11.5727 14.7002 11.5322 14.7002 11.5322 14.6597C11.5322 14.5787 11.5727 14.4977 11.5727 14.3795V14.339C11.5727 14.339 11.6132 14.2985 11.6132 14.339C11.9737 14.5791 13.4961 15.5005 13.4961 15.5005C13.4961 15.5005 15.0185 16.4219 15.3789 16.662C15.3944 16.6779 15.406 16.6971 15.413 16.7182C15.42 16.7392 15.4222 16.7615 15.4194 16.7835H15.1412ZM20.5085 9.45312L20.5491 9.49362L21.3501 9.61512H21.3907C21.5527 9.65562 21.7511 9.85569 21.4716 10.2161L18.1069 14.7825C18.0594 14.8147 18.002 14.829 17.9449 14.823L16.5829 13.9818C16.5162 13.9423 16.4402 13.9214 16.3626 13.9214C16.2851 13.9214 16.209 13.9423 16.1423 13.9818L15.7017 14.262C15.6349 14.3014 15.5588 14.3221 15.4813 14.3221C15.4039 14.3221 15.3278 14.3014 15.2611 14.262C15.1362 14.1676 14.9805 14.1235 14.8247 14.1385C14.6689 14.1535 14.5244 14.2265 14.4199 14.343C14.1422 14.5601 13.8035 14.6846 13.4514 14.6991C13.0993 14.7136 12.7514 14.6174 12.4568 14.424L10.6542 13.3026L10.5732 13.2216C10.5184 13.1757 10.4736 13.119 10.4416 13.0551C10.4097 12.9911 10.3913 12.9213 10.3875 12.8499C10.3837 12.7785 10.3946 12.7071 10.4196 12.6401C10.4446 12.5732 10.4831 12.5121 10.5327 12.4606C10.6138 12.3295 10.7429 12.2351 10.8925 12.1977C11.0421 12.1602 11.2005 12.1827 11.3338 12.2601L11.6943 12.4606H11.7347C11.7752 12.5011 11.8157 12.4606 11.8157 12.4201L11.8968 11.9394C11.8968 11.8989 11.8968 11.8584 11.8563 11.8584L11.7752 11.8179C11.6992 11.7669 11.6448 11.6895 11.6224 11.6008C11.5999 11.5121 11.6111 11.4182 11.6538 11.3372C11.6962 11.2628 11.7664 11.2082 11.849 11.1855C11.9316 11.1627 12.0198 11.1735 12.0944 11.2157L14.5377 12.6975H14.5782C14.6187 12.738 14.6592 12.6975 14.6997 12.657L17.2232 9.21215C17.2743 9.1468 17.3427 9.09702 17.4205 9.0684C17.4983 9.03977 17.5826 9.03346 17.6639 9.05015L18.3046 9.13114L18.7452 9.21215C18.7452 9.25265 18.7857 9.21215 18.7857 9.21215C18.8262 9.17165 18.8262 9.17165 18.7857 9.17165C18.7075 9.11218 18.6553 9.02469 18.6402 8.92757C18.6251 8.83045 18.6482 8.73126 18.7047 8.65083L19.5459 7.4893C19.5945 7.43184 19.6564 7.38707 19.7261 7.35884C19.7959 7.33062 19.8715 7.3198 19.9464 7.3273L21.5486 7.56746C21.58 7.56789 21.6108 7.5754 21.6388 7.58942C21.6669 7.60345 21.6914 7.62363 21.7106 7.64846L21.7511 7.68897C21.8321 7.76997 21.7916 7.88943 21.7106 7.96922C21.7106 7.96922 20.9095 9.05056 20.6288 9.4515V9.492C20.4279 9.37294 20.428 9.41303 20.5081 9.45312H20.5085Z" fill="#04D361"/>
<path d="M19.0259 2.60383C20.2676 1.64237 20.9488 1.44231 21.99 1.44231C22.2951 1.44238 22.5963 1.51088 22.8713 1.64278C23.7927 2.16361 24.1932 3.72568 23.9125 5.96895L25.2344 6.68984C25.6751 3.48551 25.0724 1.28233 23.512 0.401064C23.0226 0.12848 22.4699 -0.0097076 21.9098 0.000530201C20.5078 0.000530201 19.3863 0.401066 17.6238 1.80316C18.1446 2.08301 18.5857 2.36326 19.0259 2.60383Z" fill="white"/>
<path d="M3.72554 16.6211C1.88281 15.7399 1.4422 15.019 1.4422 14.0174C1.4422 12.9762 2.48343 11.9746 4.36626 11.0933V9.49322C1.56247 10.6547 0 12.2569 0 13.9793C0 15.7419 0.921394 16.9836 3.72599 18.1451L3.72554 16.6211Z" fill="white"/>
<path d="M7.4503 5.32744C7.20974 3.12426 7.61232 2.2029 8.57175 1.68248C8.83608 1.52206 9.14532 1.45172 9.45303 1.48201C10.4947 1.48201 11.6963 2.04293 12.936 3.00398L14.2579 2.28309C12.5355 0.880996 10.813 0.079914 9.41091 0.079914C8.85088 0.0697534 8.2981 0.207936 7.80873 0.480448C6.24666 1.40181 5.60558 2.92379 6.08631 6.12811C6.56907 5.80816 7.00967 5.56801 7.4503 5.32744Z" fill="white"/>
<path d="M27.7179 9.89376V11.4157C29.5606 12.297 30.0013 13.0179 30.0013 14.0194C30.0013 15.0607 28.96 16.0622 27.0772 16.9435V18.5457C29.8809 17.3841 31.4434 15.782 31.4434 14.0595C31.443 12.297 30.5617 11.0553 27.7179 9.89376Z" fill="white"/>
<path d="M12.4569 25.3953C11.2147 26.3568 10.5339 26.5569 9.4927 26.5569C9.18765 26.5568 8.88649 26.4883 8.61142 26.3564C7.64997 25.8356 7.28951 24.2334 7.56977 22.0302C7.12913 21.7901 6.64839 21.5495 6.20775 21.2693C5.76712 24.4335 6.36977 26.6367 7.89013 27.5179C8.37949 27.7904 8.93222 27.9286 9.49226 27.9185C10.8944 27.959 12.0559 27.558 13.8184 26.1559L12.4569 25.3953Z" fill="white"/>
<path d="M23.9932 22.7118C24.2337 24.915 23.7927 25.8364 22.8717 26.3568C22.6074 26.5172 22.2981 26.5876 21.9904 26.5573C20.9492 26.5573 19.7476 25.9964 18.467 25.0353C18.0264 25.2755 17.5857 25.516 17.105 25.7562C18.8675 27.1984 20.5499 27.9995 21.9917 27.9995C22.5518 28.0097 23.1047 27.8715 23.5942 27.5989C25.1563 26.6776 25.8375 25.1556 25.3167 21.9513C24.9145 22.191 24.4338 22.4316 23.9932 22.7118Z" fill="white"/>
</svg>
