<svg width="15" height="16" viewBox="0 0 15 16" fill="none" xmlns="http://www.w3.org/2000/svg">
<path d="M1.06543 3.8H2.46543M2.46543 3.8H13.6654M2.46543 3.8V13.6C2.46543 13.9713 2.61293 14.3274 2.87548 14.5899C3.13803 14.8525 3.49413 15 3.86543 15H10.8654C11.2367 15 11.5928 14.8525 11.8554 14.5899C12.1179 14.3274 12.2654 13.9713 12.2654 13.6V3.8H2.46543ZM4.56543 3.8V2.4C4.56543 2.0287 4.71293 1.6726 4.97548 1.41005C5.23803 1.1475 5.59413 1 5.96543 1H8.76543C9.13673 1 9.49283 1.1475 9.75538 1.41005C10.0179 1.6726 10.1654 2.0287 10.1654 2.4V3.8M5.96543 7.3V11.5M8.76543 7.3V11.5" stroke="white" stroke-width="1.5" stroke-linecap="round" stroke-linejoin="round"/>
</svg>
